# File created by Blade
# Date/Time:  Thu Sep 25 19:36:54 2014
# Frame Rate: 120.000 fps
#------------------------------------------------------
:FULLY-SPECIFIED
:DEGREES
464
root 0.870398 34.330190 -0.445134 85.638510 -5.904314 -32.155731
Spine -31.205292 -1.427814 19.512204
Head -45.738770 36.129802 9.731102
LeftShoulder -9.703825 5.861005 40.794347
LeftArm 41.527759 -37.992386 -19.197254
LeftForeArm 9.602067 -0.000000 16.149037
LeftHand -24.574139 -0.000000 -2.705434
LeftHandThumb1 -26.253704 0.000000 33.147579
RightShoulder -26.272733 -0.772800 -29.127211
RightArm -26.034315 -26.631098 53.747344
RightForeArm -37.032526 -0.000000 12.184464
RightHand -1.775316 -0.000000 24.506794
RightHandThumb1 -24.326973 -0.000000 -32.862282
LeftUpLeg -81.206119 25.466279 4.551453
LeftLeg 0.649739 -0.000000 -0.000000
LeftFoot -7.996095 16.951462 -8.253204
LeftToeBase 7.317583 -0.000000 -0.000000
RightUpLeg 15.044750 22.598201 -30.236737
RightLeg 102.831222 -0.000000 -0.000000
RightFoot 33.702043 -12.939796 16.240679
RightToeBase 4.029641 -0.000000 -0.000000
465
root 0.869947 34.328677 -0.454156 85.923763 -5.770067 -32.288309
Spine -31.262947 -1.444885 19.636209
Head -45.931501 36.358065 9.735087
LeftShoulder -9.903818 5.920776 40.920553
LeftArm 41.674530 -38.368077 -19.294099
LeftForeArm 9.798396 -0.000000 16.111880
LeftHand -24.684089 -0.000000 -2.686936
LeftHandThumb1 -26.253704 0.000000 33.147579
RightShoulder -26.365624 -0.591654 -29.209220
RightArm -25.920733 -26.500750 53.334212
RightForeArm -37.142629 -0.000000 12.326248
RightHand -1.829569 -0.000000 24.667130
RightHandThumb1 -24.326973 -0.000000 -32.862282
LeftUpLeg -81.347622 25.531881 4.875007
LeftLeg 0.550763 -0.000000 -0.000000
LeftFoot -8.005925 17.385682 -8.089606
LeftToeBase 7.287280 -0.000000 -0.000000
RightUpLeg 15.090014 22.648468 -30.282597
RightLeg 102.608120 -0.000000 -0.000000
RightFoot 33.756148 -12.959777 16.388713
RightToeBase 4.041466 -0.000000 -0.000000
466
root 0.865633 34.331174 -0.464413 86.222044 -5.577536 -32.431355
Spine -31.319149 -1.453318 19.835890
Head -46.137123 36.576937 9.736356
LeftShoulder -10.113635 5.864861 41.057024
LeftArm 41.584948 -38.450755 -19.089368
LeftForeArm 9.687448 -0.000000 16.088520
LeftHand -24.809995 -0.000000 -2.604806
LeftHandThumb1 -26.253704 0.000000 33.147579
RightShoulder -26.499260 -0.497496 -29.287129
RightArm -25.641702 -26.329368 52.890127
RightForeArm -37.255550 0.000000 12.437745
RightHand -1.965902 -0.000000 25.044405
RightHandThumb1 -24.326973 -0.000000 -32.862282
LeftUpLeg -81.522691 25.637920 5.257734
LeftLeg 0.485504 -0.000000 -0.000000
LeftFoot -7.960128 17.700486 -7.906536
LeftToeBase 7.253438 -0.000000 -0.000000
RightUpLeg 15.107294 22.712156 -30.244006
RightLeg 102.443648 -0.000000 -0.000000
RightFoot 33.757843 -12.889345 16.486430
RightToeBase 4.132265 -0.000000 -0.000000
467
root 0.869766 34.330918 -0.472760 86.534359 -5.444215 -32.519017
Spine -31.410080 -1.443580 19.961312
Head -46.385456 36.710116 9.670828
LeftShoulder -10.260397 5.782232 41.123295
LeftArm 41.585288 -38.708898 -19.000081
LeftForeArm 9.716433 0.000000 16.049504
LeftHand -24.659279 -0.000000 -2.594771
LeftHandThumb1 -26.253704 0.000000 33.147579
RightShoulder -26.641854 -0.393840 -29.395915
RightArm -25.489123 -26.242388 52.536683
RightForeArm -37.526894 -0.000000 12.554079
RightHand -1.926421 -0.000000 25.045093
RightHandThumb1 -24.326973 -0.000000 -32.862282
LeftUpLeg -81.714414 25.669998 5.563089
LeftLeg 0.420919 -0.000000 -0.000000
LeftFoot -7.959910 18.052186 -7.746832
LeftToeBase 7.304727 -0.000000 -0.000000
RightUpLeg 15.127740 22.735645 -30.286190
RightLeg 102.247183 -0.000000 -0.000000
RightFoot 33.811165 -12.942526 16.641695
RightToeBase 4.291302 -0.000000 -0.000000
468
root 0.874179 34.332019 -0.480525 86.853650 -5.287355 -32.615736
Spine -31.519798 -1.491203 20.152558
Head -46.534125 36.894801 9.704040
LeftShoulder -10.450424 5.815343 41.252829
LeftArm 41.537336 -38.946282 -18.959675
LeftForeArm 9.766363 -0.000000 16.110674
LeftHand -24.877779 0.000000 -2.559621
LeftHandThumb1 -26.253704 0.000000 33.147579
RightShoulder -26.638441 -0.309767 -29.451143
RightArm -25.341186 -26.023075 52.154453
RightForeArm -37.930393 -0.000000 12.662093
RightHand -1.822181 0.000000 24.964722
RightHandThumb1 -24.326973 -0.000000 -32.862282
LeftUpLeg -81.936679 25.735385 5.837615
LeftLeg 0.358669 -0.000000 -0.000000
LeftFoot -7.911819 18.320524 -7.430399
LeftToeBase 7.444128 -0.000000 -0.000000
RightUpLeg 15.123433 22.744052 -30.338089
RightLeg 102.067498 -0.000000 -0.000000
RightFoot 33.864916 -12.939835 16.581292
RightToeBase 4.472565 -0.000000 -0.000000
469
root 0.881432 34.333262 -0.490685 87.149697 -5.161044 -32.729925
Spine -31.560942 -1.471885 20.259399
Head -46.767564 36.976517 9.717879
LeftShoulder -10.629716 5.718192 41.389986
LeftArm 41.548933 -39.145979 -18.926798
LeftForeArm 9.805990 -0.000000 16.090839
LeftHand -24.972259 0.000000 -2.455758
LeftHandThumb1 -26.253704 0.000000 33.147579
RightShoulder -26.724525 -0.292993 -29.482815
RightArm -25.117389 -25.876210 51.820492
RightForeArm -37.789851 -0.000000 12.795547
RightHand -2.120840 -0.000000 25.173493
RightHandThumb1 -24.326973 -0.000000 -32.862282
LeftUpLeg -82.141807 25.828250 6.067471
LeftLeg 0.303502 -0.000000 -0.000000
LeftFoot -7.837500 18.527589 -7.160628
LeftToeBase 7.480343 -0.000000 -0.000000
RightUpLeg 15.127904 22.802120 -30.412202
RightLeg 101.905444 -0.000000 -0.000000
RightFoot 33.913546 -13.027870 16.633350
RightToeBase 4.674353 -0.000000 -0.000000
470
root 0.882626 34.333988 -0.496915 87.454957 -5.000672 -32.764784
Spine -31.687283 -1.501640 20.398841
Head -46.916139 37.045052 9.763663
LeftShoulder -10.787216 5.666634 41.490424
LeftArm 41.575468 -39.356762 -18.872064
LeftForeArm 9.934881 0.000000 16.074448
LeftHand -24.867370 -0.000000 -2.523273
LeftHandThumb1 -26.253704 0.000000 33.147579
RightShoulder -26.771308 -0.256613 -29.549649
RightArm -25.030664 -25.780317 51.548084
RightForeArm -37.999138 -0.000000 12.949235
RightHand -2.265097 -0.000000 25.360036
RightHandThumb1 -24.326973 -0.000000 -32.862282
LeftUpLeg -82.416377 25.869270 6.204953
LeftLeg 0.244057 -0.000000 -0.000000
LeftFoot -7.788940 18.607832 -6.924904
LeftToeBase 7.516695 -0.000000 -0.000000
RightUpLeg 15.193500 22.759814 -30.401590
RightLeg 101.736783 -0.000000 -0.000000
RightFoot 33.855587 -13.146618 16.531450
RightToeBase 4.948822 -0.000000 -0.000000
